<svg width="16" height="19" viewBox="0 0 16 19" fill="none" xmlns="http://www.w3.org/2000/svg">
<path d="M13 3L10 0H6L3 3H1.5V17C1.5 18.1 2.4 19 3.5 19H12.5C13.6 19 14.5 18.1 14.5 17V3H13Z" fill="#9575CD"/>
<path d="M8.25 16.5H7.75C7.35 16.5 7 16.15 7 15.75V6.25C7 5.85 7.35 5.5 7.75 5.5H8.25C8.65 5.5 9 5.85 9 6.25V15.75C9 16.15 8.65 16.5 8.25 16.5ZM11.75 16.5C11.35 16.5 11 16.15 11 15.75V6.25C11 5.85 11.35 5.5 11.75 5.5C12.15 5.5 12.5 5.85 12.5 6.25V15.75C12.5 16.15 12.15 16.5 11.75 16.5ZM4.25 16.5C3.85 16.5 3.5 16.15 3.5 15.75V6.25C3.5 5.85 3.85 5.5 4.25 5.5C4.65 5.5 5 5.85 5 6.25V15.75C5 16.15 4.65 16.5 4.25 16.5Z" fill="#7454B3"/>
<path d="M1.5 1H14.5C15.05 1 15.5 1.45 15.5 2V3H0.5V2C0.5 1.45 0.95 1 1.5 1Z" fill="#B39DDB"/>
</svg>
